<svg width="400" height="300" viewBox="0 0 400 300" xmlns="http://www.w3.org/2000/svg">
  <defs>
    <linearGradient id="vrGradient" x1="0%" y1="0%" x2="100%" y2="100%">
      <stop offset="0%" style="stop-color:#8B5CF6;stop-opacity:1" />
      <stop offset="50%" style="stop-color:#3B82F6;stop-opacity:1" />
      <stop offset="100%" style="stop-color:#06B6D4;stop-opacity:1" />
    </linearGradient>
    <linearGradient id="backgroundGradient" x1="0%" y1="0%" x2="100%" y2="100%">
      <stop offset="0%" style="stop-color:#1E1B4B;stop-opacity:1" />
      <stop offset="100%" style="stop-color:#7C3AED;stop-opacity:1" />
    </linearGradient>
  </defs>
  
  <!-- Background -->
  <rect width="400" height="300" fill="url(#backgroundGradient)"/>
  
  <!-- Person silhouette -->
  <ellipse cx="200" cy="250" rx="60" ry="40" fill="#1F2937" opacity="0.8"/>
  <rect x="170" y="180" width="60" height="80" rx="30" fill="#1F2937" opacity="0.8"/>
  
  <!-- VR Headset -->
  <rect x="150" y="140" width="100" height="50" rx="25" fill="url(#vrGradient)" stroke="#FFFFFF" stroke-width="2"/>
  
  <!-- VR Lenses -->
  <circle cx="170" cy="165" r="15" fill="#000000" opacity="0.9"/>
  <circle cx="230" cy="165" r="15" fill="#000000" opacity="0.9"/>
  
  <!-- VR Strap -->
  <path d="M 250 165 Q 280 140 280 180 Q 280 220 250 195" stroke="#FFFFFF" stroke-width="3" fill="none"/>
  <path d="M 150 165 Q 120 140 120 180 Q 120 220 150 195" stroke="#FFFFFF" stroke-width="3" fill="none"/>
  
  <!-- Hands gesturing -->
  <ellipse cx="120" cy="220" rx="8" ry="12" fill="#F3E8FF" opacity="0.9"/>
  <ellipse cx="280" cy="220" rx="8" ry="12" fill="#F3E8FF" opacity="0.9"/>
  
  <!-- Tech effects -->
  <circle cx="100" cy="80" r="3" fill="#06B6D4" opacity="0.8">
    <animate attributeName="opacity" values="0.8;0.3;0.8" dur="2s" repeatCount="indefinite"/>
  </circle>
  <circle cx="320" cy="90" r="2" fill="#8B5CF6" opacity="0.7">
    <animate attributeName="opacity" values="0.7;0.2;0.7" dur="1.5s" repeatCount="indefinite"/>
  </circle>
  <circle cx="80" cy="150" r="2" fill="#3B82F6" opacity="0.6">
    <animate attributeName="opacity" values="0.6;0.1;0.6" dur="3s" repeatCount="indefinite"/>
  </circle>
</svg>




